<?xml version="1.0" encoding="UTF-8"?>
<svg id="Layer_2" data-name="Layer 2" xmlns="http://www.w3.org/2000/svg" viewBox="0 0 1408.17 198.81">
  <defs>
    <style>
      .cls-1 {
        fill: #dd8001;
      }

      .cls-2 {
        fill: #3fe43b;
      }

      .cls-3 {
        fill: #ffffff;
      }
    </style>
  </defs>
  <g id="Layer_1-2" data-name="Layer 1" fill="#ffffff">
    <polygon class="cls-3" points="0 0 0 193.84 13.24 193.84 5.63 163.74 32.84 170.76 38.39 155.54 75.72 191.29 60.92 120.73 78.47 128.34 95.55 96.16 112.99 128.34 130.83 120.73 115.19 191.29 152.48 157.59 157.16 171.34 184.95 166.95 178.51 193.84 191.09 193.84 191.09 0 0 0"/>
    <path class="cls-3" d="M235.46,3.7c9.39,0,16.09,2.21,20.1,6.61,4.01,4.41,6.01,11.08,6.01,20.01v5.67c0,6.41-1.03,11.59-3.09,15.54-2.06,3.95-5.73,6.73-10.99,8.33,5.84,1.6,9.99,4.64,12.45,9.1,2.46,4.47,3.69,10.02,3.69,16.66v10.14c0,9.04-2.23,16.01-6.7,20.87-4.47,4.87-11.4,7.3-20.78,7.3h-27.66V3.7h26.97ZM232.2,54.72c5.38,0,9.42-1.09,12.11-3.27,2.69-2.17,4.04-6.41,4.04-12.71v-7.04c0-5.38-1-9.36-3.01-11.94-2.01-2.58-5.41-3.87-10.22-3.87h-13.23v38.82h10.31ZM236.15,111.74c9.5,0,14.26-5.44,14.26-16.31v-10.65c0-6.75-1.35-11.42-4.04-14-2.69-2.58-6.96-3.87-12.8-3.87h-11.68v44.83h14.26Z"/>
    <path class="cls-3" d="M317.57,3.7c9.5,0,16.34,2.35,20.53,7.04,4.18,4.7,6.27,11.51,6.27,20.44v9.79c0,6.64-1.2,12.02-3.61,16.15-2.4,4.12-6.18,6.98-11.34,8.59,5.5,1.6,9.39,4.55,11.68,8.85,2.29,4.3,3.43,9.71,3.43,16.23v18.72c0,2.63.11,5.18.34,7.64.23,2.46.92,4.73,2.06,6.79h-13.57c-.8-1.72-1.38-3.58-1.72-5.58-.34-2-.51-5.01-.51-9.02v-18.89c0-6.76-1.52-11.43-4.55-14-3.04-2.57-7.36-3.86-12.97-3.86h-9.45v51.36h-13.4V3.7h26.8ZM314.13,60.38c5.38,0,9.56-1.11,12.54-3.35,2.98-2.24,4.47-6.61,4.47-13.14v-11.51c0-5.49-1.06-9.61-3.18-12.37-2.12-2.74-5.7-4.12-10.73-4.12h-13.06v44.49h9.96Z"/>
    <path class="cls-3" d="M386.96,99.72l-4.64,24.22h-12.37L392.97,3.7h19.41l23.02,120.24h-13.4l-4.64-24.22h-30.4ZM388.68,88.21h26.8l-13.57-69.39-13.23,69.39Z"/>
    <path class="cls-3" d="M473.53,95.6c0,5.5,1.11,9.77,3.35,12.8,2.23,3.04,5.81,4.55,10.73,4.55s8.33-1.51,10.56-4.55c2.23-3.03,3.35-7.3,3.35-12.8V3.7h12.54v91.21c0,9.16-2.18,16.52-6.53,22.07-4.35,5.55-11.16,8.33-20.44,8.33s-15.92-2.78-20.27-8.33c-4.35-5.55-6.53-12.91-6.53-22.07V3.7h13.23v91.9Z"/>
    <path class="cls-3" d="M567.49,2.5c9.16,0,15.92,2.73,20.27,8.16,4.35,5.44,6.52,12.73,6.52,21.9v3.26h-12.71v-3.95c0-5.5-1.09-9.73-3.27-12.71-2.17-2.97-5.67-4.46-10.48-4.46s-8.3,1.49-10.48,4.46c-2.17,2.98-3.26,7.16-3.26,12.54,0,4.46,1,8.36,3,11.68,2,3.32,4.49,6.38,7.47,9.19,2.98,2.81,6.21,5.55,9.71,8.24,3.49,2.69,6.72,5.64,9.7,8.85,2.98,3.2,5.47,6.84,7.47,10.9,2,4.07,3.01,8.91,3.01,14.51,0,9.16-2.21,16.47-6.62,21.9-4.41,5.44-11.25,8.16-20.52,8.16s-16.09-2.72-20.44-8.16c-4.35-5.44-6.53-12.74-6.53-21.9v-6.87h12.54v7.56c0,5.5,1.14,9.74,3.43,12.71,2.29,2.98,5.84,4.46,10.65,4.46s8.36-1.48,10.65-4.46c2.29-2.97,3.43-7.21,3.43-12.71,0-4.46-1-8.33-3-11.59-2.01-3.26-4.5-6.3-7.48-9.1-2.98-2.81-6.18-5.56-9.62-8.25-3.44-2.68-6.64-5.63-9.62-8.84-2.98-3.21-5.47-6.84-7.47-10.91-2-4.06-3-8.9-3-14.51,0-9.28,2.17-16.6,6.53-21.99,4.35-5.38,11.05-8.08,20.1-8.08"/>
    <path class="cls-3" d="M646.33,2.5c9.16,0,15.92,2.73,20.27,8.16,4.35,5.44,6.52,12.73,6.52,21.9v3.26h-12.71v-3.95c0-5.5-1.09-9.73-3.27-12.71-2.17-2.97-5.67-4.46-10.48-4.46s-8.3,1.49-10.48,4.46c-2.17,2.98-3.26,7.16-3.26,12.54,0,4.46,1,8.36,3,11.68,2,3.32,4.49,6.38,7.47,9.19,2.98,2.81,6.21,5.55,9.71,8.24,3.49,2.69,6.72,5.64,9.7,8.85,2.98,3.2,5.47,6.84,7.47,10.9,2,4.07,3.01,8.91,3.01,14.51,0,9.16-2.21,16.47-6.62,21.9-4.41,5.44-11.25,8.16-20.52,8.16s-16.09-2.72-20.44-8.16c-4.35-5.44-6.53-12.74-6.53-21.9v-6.87h12.54v7.56c0,5.5,1.14,9.74,3.43,12.71,2.29,2.98,5.84,4.46,10.65,4.46s8.36-1.48,10.65-4.46c2.29-2.97,3.43-7.21,3.43-12.71,0-4.46-1-8.33-3-11.59-2.01-3.26-4.5-6.3-7.48-9.1-2.98-2.81-6.18-5.56-9.62-8.25-3.44-2.68-6.64-5.63-9.62-8.84-2.98-3.21-5.47-6.84-7.47-10.91-2-4.06-3-8.9-3-14.51,0-9.28,2.17-16.6,6.53-21.99,4.35-5.38,11.05-8.08,20.1-8.08"/>
    <polygon class="cls-3" points="742.69 56.95 742.69 68.97 713.32 68.97 713.32 111.74 749.39 111.74 749.39 123.94 699.92 123.94 699.92 3.7 749.39 3.7 749.39 15.9 713.32 15.9 713.32 56.95 742.69 56.95"/>
    <path class="cls-3" d="M237.81,172.94v-5.55l20.05-.03v17.56c-3.08,2.46-6.25,4.3-9.52,5.54-3.27,1.23-6.63,1.85-10.07,1.85-4.65,0-8.87-.99-12.67-2.99-3.8-1.99-6.67-4.87-8.6-8.63-1.94-3.77-2.91-7.98-2.91-12.63s.96-8.9,2.89-12.9c1.93-3.99,4.7-6.96,8.32-8.9,3.61-1.94,7.78-2.91,12.49-2.91,3.42,0,6.52.55,9.29,1.67,2.76,1.11,4.93,2.65,6.5,4.63,1.57,1.98,2.77,4.56,3.59,7.75l-5.65,1.55c-.71-2.41-1.59-4.31-2.65-5.69-1.05-1.38-2.56-2.48-4.52-3.31-1.96-.83-4.13-1.25-6.52-1.25-2.87,0-5.34.44-7.43,1.31-2.09.87-3.77,2.01-5.05,3.43-1.28,1.42-2.28,2.99-2.99,4.68-1.21,2.93-1.81,6.1-1.81,9.53,0,4.22.73,7.74,2.18,10.59,1.45,2.84,3.57,4.95,6.34,6.33,2.78,1.38,5.73,2.07,8.85,2.07,2.71,0,5.36-.52,7.94-1.56,2.58-1.05,4.54-2.16,5.88-3.35v-8.81h-13.91Z"/>
    <path class="cls-3" d="M346.05,171.13v20.37h-7.28v-46.98h18.4c5.89,0,10.38,1.14,13.49,3.42,3.1,2.28,4.66,5.6,4.66,9.95,0,2.41-.72,4.51-2.16,6.3-1.44,1.78-3.54,3.2-6.3,4.26,2.96.84,5.08,2.2,6.37,4.08,1.3,1.89,1.94,4.21,1.94,6.99v4.42c0,1.47.18,2.78.55,3.94.37,1.16,1.01,2.11,1.92,2.84v.77h-7.5c-.96-.73-1.58-1.81-1.85-3.23-.27-1.42-.41-2.88-.41-4.39v-4.29c0-2.54-.85-4.59-2.55-6.14-1.7-1.55-3.98-2.32-6.84-2.32h-12.45ZM346.05,166.12h10.38c4.11,0,7.07-.68,8.89-2.05,1.81-1.36,2.72-3.45,2.72-6.25,0-2.65-.88-4.7-2.64-6.15-1.76-1.45-4.5-2.18-8.22-2.18h-11.12v16.63Z"/>
    <path class="cls-3" d="M454.18,168.45c0-7.86,2.35-14.01,7.04-18.45,4.69-4.45,10.75-6.67,18.18-6.67,4.86,0,9.24,1.05,13.14,3.13,3.9,2.09,6.88,5,8.93,8.74,2.05,3.73,3.07,7.97,3.07,12.71s-1.08,9.1-3.23,12.88c-2.15,3.79-5.21,6.65-9.16,8.6-3.95,1.95-8.22,2.92-12.79,2.92-4.96,0-9.39-1.07-13.29-3.22-3.9-2.15-6.86-5.1-8.87-8.82-2.01-3.73-3.02-7.66-3.02-11.82M461.36,168.54c0,5.71,1.7,10.2,5.12,13.48,3.41,3.28,7.69,4.92,12.84,4.92s9.56-1.65,12.95-4.97c3.39-3.31,5.08-8.01,5.08-14.11,0-3.85-.72-7.22-2.17-10.09-1.45-2.87-3.57-5.1-6.36-6.68-2.79-1.58-5.92-2.37-9.39-2.37-4.93,0-9.18,1.52-12.73,4.57-3.56,3.04-5.33,8.13-5.33,15.25"/>
    <path class="cls-3" d="M618.95,144.17h6.88v27.35c0,4.76-.59,8.54-1.77,11.33-1.18,2.8-3.31,5.08-6.4,6.83-3.08,1.76-7.13,2.63-12.13,2.63s-8.85-.76-11.94-2.29c-3.09-1.52-5.3-3.74-6.63-6.63-1.32-2.9-1.98-6.85-1.98-11.87v-27.35h6.88v27.31c0,4.11.42,7.14,1.26,9.09s2.28,3.45,4.32,4.5c2.04,1.05,4.54,1.58,7.49,1.58,5.05,0,8.66-1.04,10.81-3.13,2.15-2.08,3.22-6.1,3.22-12.04v-27.31Z"/>
    <path class="cls-3" d="M708.59,191.5v-47.33h17.86c3.14,0,5.54.15,7.2.45,2.33.39,4.27,1.13,5.84,2.21,1.57,1.09,2.84,2.61,3.8,4.57.96,1.96,1.43,4.11,1.43,6.46,0,4.03-1.28,7.43-3.84,10.22-2.56,2.78-7.19,4.18-13.89,4.18h-12.14v19.24h-6.27ZM714.86,166.67h12.23c4.05,0,6.92-.75,8.62-2.26,1.7-1.5,2.55-3.63,2.55-6.36,0-1.98-.5-3.67-1.5-5.08-1-1.41-2.32-2.34-3.96-2.8-1.05-.28-3-.42-5.84-.42h-12.11v16.92Z"/>
    <polygon class="cls-1" points="32.84 170.75 38.39 155.54 75.72 191.29 60.92 120.73 78.47 128.34 95.55 96.16 95.55 95.92 0 95.92 0 193.84 13.24 193.84 5.63 163.73 32.84 170.75"/>
    <path d="M935.01,180.26l-3.01,9.1h-3.86l9.88-28.94h4.46l9.88,28.94h-3.99l-3.09-9.1h-10.26ZM944.54,177.34l-2.88-8.33c-.64-1.89-1.07-3.61-1.5-5.28h-.09c-.43,1.67-.86,3.48-1.46,5.24l-2.83,8.37h8.76Z"/>
    <path d="M969.66,160.86c1.63-.39,4.25-.64,6.83-.64,3.73,0,6.14.64,7.9,2.1,1.5,1.12,2.45,2.83,2.45,5.11,0,2.83-1.89,5.28-4.89,6.36v.13c2.75.65,5.97,2.92,5.97,7.21,0,2.49-.99,4.42-2.49,5.8-1.97,1.85-5.24,2.7-9.96,2.7-2.58,0-4.55-.17-5.8-.34v-28.42ZM973.4,172.71h3.39c3.91,0,6.23-2.1,6.23-4.89,0-3.35-2.53-4.72-6.31-4.72-1.72,0-2.7.13-3.31.26v9.36ZM973.4,186.53c.77.13,1.8.17,3.13.17,3.86,0,7.43-1.42,7.43-5.62,0-3.91-3.39-5.58-7.47-5.58h-3.09v11.03Z"/>
    <path d="M1013.76,178.8c0,7.69-5.37,11.04-10.35,11.04-5.58,0-9.96-4.12-9.96-10.69,0-6.91,4.59-10.99,10.3-10.99s10.01,4.34,10.01,10.65M997.32,179.02c0,4.55,2.58,7.99,6.27,7.99s6.31-3.39,6.31-8.07c0-3.52-1.76-7.94-6.23-7.94s-6.35,4.12-6.35,8.03"/>
    <path d="M1020.51,158.88h3.74v13.05h.09c1.33-2.32,3.73-3.78,7.08-3.78,5.2,0,8.8,4.29,8.8,10.56,0,7.43-4.72,11.12-9.36,11.12-3.01,0-5.41-1.16-7-3.86h-.09l-.21,3.39h-3.22c.09-1.42.17-3.52.17-5.37v-25.12ZM1024.24,181.04c0,.47.04.95.17,1.37.69,2.62,2.92,4.42,5.67,4.42,3.99,0,6.31-3.22,6.31-7.99,0-4.17-2.15-7.73-6.22-7.73-2.53,0-4.94,1.8-5.71,4.64-.13.47-.21.99-.21,1.59v3.69Z"/>
    <path d="M1046.4,185.55c1.16.69,3.13,1.46,5.02,1.46,2.71,0,3.99-1.33,3.99-3.09s-1.07-2.75-3.82-3.78c-3.78-1.37-5.54-3.39-5.54-5.88,0-3.35,2.75-6.1,7.17-6.1,2.1,0,3.95.56,5.07,1.29l-.9,2.75c-.82-.52-2.32-1.25-4.25-1.25-2.23,0-3.43,1.29-3.43,2.83,0,1.72,1.2,2.49,3.91,3.56,3.56,1.33,5.45,3.14,5.45,6.23,0,3.69-2.88,6.27-7.73,6.27-2.28,0-4.38-.6-5.84-1.46l.9-2.83Z"/>
    <path d="M1070.45,163.6v4.98h5.41v2.88h-5.41v11.21c0,2.58.73,4.04,2.83,4.04,1.03,0,1.63-.09,2.19-.26l.17,2.88c-.73.26-1.89.52-3.35.52-1.76,0-3.18-.6-4.08-1.59-1.03-1.16-1.46-3.01-1.46-5.45v-11.34h-3.22v-2.88h3.22v-3.86l3.69-1.12Z"/>
    <path d="M1115.37,188.08c-1.68.64-5.02,1.59-8.93,1.59-4.38,0-7.99-1.12-10.82-3.82-2.49-2.4-4.04-6.27-4.04-10.78,0-8.63,5.97-14.94,15.67-14.94,3.35,0,6.01.73,7.26,1.33l-.95,3.05c-1.55-.73-3.48-1.24-6.4-1.24-7.04,0-11.64,4.38-11.64,11.64s4.38,11.68,11.16,11.68c2.45,0,4.12-.34,4.98-.77v-8.63h-5.84v-3.01h9.53v13.91Z"/>
    <path d="M1122.88,175.07c0-2.45-.04-4.55-.17-6.48h3.31l.17,4.12h.13c.94-2.79,3.26-4.55,5.8-4.55.39,0,.69.04,1.03.09v3.56c-.39-.09-.77-.09-1.29-.09-2.66,0-4.55,1.98-5.07,4.81-.09.51-.13,1.16-.13,1.76v11.08h-3.78v-14.3Z"/>
    <path d="M1157.28,178.8c0,7.69-5.37,11.04-10.35,11.04-5.58,0-9.96-4.12-9.96-10.69,0-6.91,4.59-10.99,10.3-10.99s10.01,4.34,10.01,10.65M1140.83,179.02c0,4.55,2.58,7.99,6.27,7.99s6.31-3.39,6.31-8.07c0-3.52-1.76-7.94-6.23-7.94s-6.35,4.12-6.35,8.03"/>
    <path d="M1181.41,183.66c0,2.19.04,4.08.17,5.71h-3.35l-.21-3.39h-.09c-.95,1.68-3.18,3.86-6.87,3.86-3.26,0-7.17-1.85-7.17-9.1v-12.15h3.78v11.46c0,3.95,1.24,6.65,4.64,6.65,2.53,0,4.29-1.76,4.98-3.48.21-.51.34-1.2.34-1.93v-12.71h3.78v15.07Z"/>
    <path d="M1189.66,175.37c0-2.66-.09-4.81-.17-6.78h3.35l.21,3.56h.09c1.5-2.53,3.99-3.99,7.39-3.99,5.07,0,8.84,4.25,8.84,10.52,0,7.47-4.59,11.16-9.49,11.16-2.75,0-5.15-1.2-6.4-3.26h-.09v11.29h-3.74v-22.5ZM1193.39,180.91c0,.56.04,1.07.17,1.55.69,2.62,2.96,4.42,5.67,4.42,3.99,0,6.31-3.26,6.31-8.03,0-4.12-2.19-7.69-6.18-7.69-2.58,0-5.03,1.8-5.71,4.64-.13.47-.26,1.03-.26,1.5v3.61Z"/>
    <path d="M1241.96,188.64c-.99.47-3.18,1.2-5.97,1.2-6.27,0-10.35-4.25-10.35-10.61s4.38-11.08,11.16-11.08c2.23,0,4.21.56,5.24,1.12l-.86,2.88c-.9-.47-2.32-.99-4.38-.99-4.77,0-7.34,3.56-7.34,7.86,0,4.81,3.09,7.77,7.21,7.77,2.15,0,3.56-.52,4.64-.99l.65,2.83Z"/>
    <path d="M1266.91,178.8c0,7.69-5.37,11.04-10.35,11.04-5.58,0-9.96-4.12-9.96-10.69,0-6.91,4.59-10.99,10.3-10.99s10.01,4.34,10.01,10.65M1250.46,179.02c0,4.55,2.58,7.99,6.27,7.99s6.31-3.39,6.31-8.07c0-3.52-1.76-7.94-6.23-7.94s-6.35,4.12-6.35,8.03"/>
    <path d="M1273.65,174.21c0-2.19-.09-3.91-.17-5.62h3.31l.17,3.39h.13c1.16-1.98,3.09-3.82,6.57-3.82,2.79,0,4.94,1.72,5.84,4.17h.09c.64-1.2,1.5-2.06,2.36-2.71,1.24-.94,2.58-1.46,4.55-1.46,2.79,0,6.87,1.8,6.87,9.02v12.19h-3.69v-11.72c0-4.04-1.5-6.4-4.51-6.4-2.19,0-3.82,1.59-4.51,3.39-.17.56-.3,1.2-.3,1.89v12.84h-3.69v-12.45c0-3.31-1.46-5.67-4.34-5.67-2.32,0-4.08,1.89-4.68,3.78-.21.52-.3,1.2-.3,1.85v12.49h-3.69v-15.16Z"/>
    <path d="M1311.44,175.37c0-2.66-.09-4.81-.17-6.78h3.35l.21,3.56h.09c1.5-2.53,3.99-3.99,7.39-3.99,5.07,0,8.84,4.25,8.84,10.52,0,7.47-4.59,11.16-9.49,11.16-2.75,0-5.15-1.2-6.4-3.26h-.09v11.29h-3.74v-22.5ZM1315.18,180.91c0,.56.04,1.07.17,1.55.69,2.62,2.96,4.42,5.67,4.42,3.99,0,6.31-3.26,6.31-8.03,0-4.12-2.19-7.69-6.18-7.69-2.58,0-5.03,1.8-5.71,4.64-.13.47-.26,1.03-.26,1.5v3.61Z"/>
    <path d="M1352.45,184.39c0,1.8.09,3.56.3,4.98h-3.39l-.3-2.62h-.13c-1.16,1.63-3.39,3.09-6.36,3.09-4.21,0-6.35-2.96-6.35-5.97,0-5.02,4.47-7.77,12.49-7.73v-.43c0-1.68-.47-4.81-4.72-4.77-1.97,0-3.99.56-5.45,1.55l-.86-2.53c1.72-1.07,4.25-1.8,6.87-1.8,6.35,0,7.9,4.34,7.9,8.46v7.77ZM1348.8,178.76c-4.12-.08-8.8.65-8.8,4.68,0,2.49,1.63,3.61,3.52,3.61,2.75,0,4.51-1.72,5.11-3.48.13-.43.17-.86.17-1.2v-3.61Z"/>
    <path d="M1360.53,174.21c0-2.19-.04-3.91-.17-5.62h3.35l.22,3.44h.09c1.03-1.93,3.44-3.86,6.87-3.86,2.88,0,7.34,1.72,7.34,8.85v12.37h-3.78v-11.98c0-3.35-1.24-6.14-4.81-6.14-2.45,0-4.38,1.76-5.07,3.86-.17.47-.26,1.12-.26,1.76v12.49h-3.78v-15.16Z"/>
    <path d="M1387.15,168.59l4.51,12.28c.52,1.37,1.03,3.01,1.37,4.25h.09c.39-1.24.82-2.83,1.33-4.34l4.12-12.2h3.99l-5.67,14.81c-2.7,7.13-4.55,10.73-7.13,13.01-1.89,1.59-3.69,2.23-4.64,2.4l-.94-3.13c.94-.3,2.19-.9,3.31-1.85,1.03-.82,2.28-2.28,3.18-4.21.17-.39.3-.69.3-.9s-.09-.51-.3-.99l-7.64-19.15h4.12Z"/>
    <polygon class="cls-2" points="883.23 85.55 883.23 69.89 822.3 69.89 801.36 69.89 801.36 85.55 801.36 127.59 801.36 141.21 801.36 141.55 883.23 141.55 883.23 127.59 822.3 127.59 822.3 85.55 883.23 85.55"/>
    <rect class="cls-2" x="841.19" y="98.38" width="39.66" height="15.42"/>
    <polygon class="cls-2" points="1079.06 85.55 1079.06 69.89 1018.13 69.89 997.19 69.89 997.19 85.55 997.19 127.59 997.19 141.21 997.19 141.55 1079.06 141.55 1079.06 127.59 1018.13 127.59 1018.13 85.55 1079.06 85.55"/>
    <rect class="cls-2" x="1037.02" y="98.38" width="39.66" height="15.42"/>
    <rect class="cls-2" x="896" y="69.89" width="88.68" height="14.64"/>
    <rect class="cls-2" x="930.21" y="98.38" width="20.26" height="43.17"/>
    <polygon class="cls-2" points="1346.55 69.89 1367.49 69.89 1408.17 141.55 1384.85 141.55 1377.36 126.57 1336.68 126.57 1329.7 141.55 1307.06 141.55 1322.38 113.97 1370.89 113.97 1357.62 88.27 1353.19 98.38 1329.87 98.38 1346.55 69.89"/>
    <rect class="cls-2" x="1206.21" y="98.38" width="20.26" height="43.17"/>
    <polygon class="cls-2" points="1271.99 69.89 1271.99 115.94 1229.45 69.89 1206.21 69.89 1271.99 141.55 1278.98 141.55 1292.24 141.55 1292.24 69.89 1271.99 69.89"/>
    <rect class="cls-2" x="1101.02" y="98.38" width="20.26" height="43.17"/>
    <path class="cls-2" d="M1101.02,69.89v14.47h66.13v14.03h-35.23l38.64,43.16h22.3l-26.72-27.74s20.6-3.57,20.6-23.32-21.28-20.6-21.28-20.6h-64.43Z"/>
    <path d="M801.36,11.09c1.88-.31,4.35-.58,7.48-.58,3.85,0,6.67.9,8.47,2.51,1.61,1.43,2.64,3.63,2.64,6.32s-.81,4.88-2.33,6.45c-2.11,2.2-5.42,3.31-9.23,3.31-1.16,0-2.24-.04-3.13-.27v12.09h-3.9V11.09ZM805.26,25.65c.85.22,1.93.31,3.22.31,4.7,0,7.57-2.33,7.57-6.41s-2.87-5.96-7.12-5.96c-1.7,0-3,.13-3.67.31v11.74Z"/>
    <path d="M826.8,26.01c0-2.55-.05-4.75-.18-6.76h3.45l.18,4.3h.14c.98-2.91,3.4-4.75,6.05-4.75.4,0,.72.04,1.07.09v3.72c-.4-.09-.81-.09-1.34-.09-2.78,0-4.75,2.06-5.29,5.02-.09.54-.13,1.21-.13,1.84v11.56h-3.94v-14.92Z"/>
    <path d="M863.09,29.91c0,8.02-5.6,11.51-10.8,11.51-5.82,0-10.39-4.3-10.39-11.15,0-7.21,4.79-11.47,10.75-11.47s10.44,4.52,10.44,11.11M845.93,30.13c0,4.75,2.69,8.33,6.54,8.33s6.59-3.54,6.59-8.42c0-3.67-1.84-8.29-6.5-8.29s-6.63,4.3-6.63,8.38"/>
    <path d="M888.66,34.97c0,2.28.04,4.26.18,5.96h-3.49l-.22-3.54h-.09c-.98,1.75-3.31,4.03-7.17,4.03-3.4,0-7.48-1.93-7.48-9.5v-12.68h3.94v11.96c0,4.12,1.3,6.94,4.84,6.94,2.64,0,4.48-1.84,5.2-3.63.22-.54.36-1.25.36-2.02v-13.26h3.94v15.72Z"/>
    <path d="M916.34,9.12v26.21c0,1.93.09,4.12.18,5.6h-3.49l-.18-3.76h-.13c-1.17,2.42-3.76,4.25-7.3,4.25-5.24,0-9.32-4.43-9.32-11.02-.04-7.21,4.48-11.6,9.72-11.6,3.36,0,5.55,1.57,6.54,3.27h.09v-12.95h3.9ZM912.45,28.07c0-.49-.05-1.16-.18-1.66-.58-2.46-2.73-4.52-5.69-4.52-4.08,0-6.5,3.58-6.5,8.33,0,4.39,2.19,8.02,6.41,8.02,2.64,0,5.06-1.79,5.78-4.7.13-.54.18-1.08.18-1.7v-3.76Z"/>
    <rect x="925.39" y="9.12" width="3.94" height="31.8"/>
    <path d="M939.86,19.24l4.7,12.81c.54,1.43,1.08,3.14,1.43,4.43h.09c.4-1.3.85-2.96,1.39-4.52l4.3-12.72h4.17l-5.91,15.46c-2.82,7.44-4.75,11.2-7.44,13.57-1.97,1.66-3.85,2.33-4.84,2.51l-.98-3.27c.98-.31,2.29-.94,3.45-1.93,1.08-.85,2.37-2.37,3.31-4.39.18-.4.31-.72.31-.94s-.09-.54-.31-1.03l-7.97-19.98h4.3Z"/>
    <path d="M974.07,11.14c1.97-.36,4.84-.63,7.48-.63,4.17,0,6.9.81,8.73,2.46,1.48,1.34,2.37,3.4,2.37,5.78,0,3.94-2.51,6.59-5.64,7.66v.13c2.29.81,3.67,2.96,4.39,6.09.98,4.21,1.7,7.12,2.33,8.29h-4.03c-.49-.9-1.16-3.45-1.97-7.21-.9-4.17-2.55-5.73-6.09-5.87h-3.67v13.08h-3.9V11.14ZM977.97,24.89h3.99c4.17,0,6.81-2.28,6.81-5.73,0-3.9-2.82-5.6-6.94-5.6-1.88,0-3.18.14-3.85.31v11.02Z"/>
    <path d="M1002.88,30.8c.09,5.33,3.45,7.53,7.44,7.53,2.82,0,4.57-.49,6-1.12l.72,2.82c-1.39.63-3.81,1.39-7.26,1.39-6.68,0-10.66-4.43-10.66-10.97s3.85-11.65,10.17-11.65c7.12,0,8.96,6.18,8.96,10.17,0,.81-.04,1.39-.13,1.84h-15.23ZM1014.43,27.98c.04-2.46-1.03-6.36-5.47-6.36-4.03,0-5.73,3.63-6.05,6.36h11.51Z"/>
    <path d="M1025.58,26.32c0-2.78-.09-5.02-.18-7.08h3.49l.22,3.72h.09c1.57-2.64,4.17-4.16,7.7-4.16,5.29,0,9.23,4.43,9.23,10.97,0,7.79-4.79,11.65-9.9,11.65-2.87,0-5.38-1.25-6.67-3.4h-.09v11.78h-3.9v-23.47ZM1029.48,32.1c0,.58.04,1.12.18,1.61.72,2.73,3.09,4.61,5.91,4.61,4.17,0,6.59-3.41,6.59-8.38,0-4.3-2.28-8.02-6.45-8.02-2.69,0-5.24,1.88-5.96,4.84-.13.49-.27,1.08-.27,1.57v3.76Z"/>
    <path d="M1053.53,26.01c0-2.55-.05-4.75-.18-6.76h3.45l.18,4.3h.14c.98-2.91,3.4-4.75,6.05-4.75.4,0,.72.04,1.07.09v3.72c-.4-.09-.81-.09-1.34-.09-2.78,0-4.75,2.06-5.29,5.02-.09.54-.13,1.21-.13,1.84v11.56h-3.94v-14.92Z"/>
    <path d="M1072.39,30.8c.09,5.33,3.45,7.53,7.44,7.53,2.82,0,4.57-.49,6-1.12l.72,2.82c-1.39.63-3.81,1.39-7.26,1.39-6.68,0-10.66-4.43-10.66-10.97s3.85-11.65,10.17-11.65c7.12,0,8.96,6.18,8.96,10.17,0,.81-.04,1.39-.13,1.84h-15.23ZM1083.95,27.98c.04-2.46-1.03-6.36-5.47-6.36-4.03,0-5.73,3.63-6.05,6.36h11.51Z"/>
    <path d="M1094.56,36.94c1.21.72,3.27,1.52,5.24,1.52,2.82,0,4.17-1.39,4.17-3.23s-1.12-2.87-3.99-3.94c-3.94-1.43-5.78-3.54-5.78-6.14,0-3.49,2.87-6.36,7.48-6.36,2.19,0,4.12.58,5.29,1.34l-.94,2.87c-.85-.54-2.42-1.3-4.43-1.3-2.33,0-3.58,1.34-3.58,2.96,0,1.79,1.25,2.6,4.08,3.72,3.72,1.39,5.69,3.27,5.69,6.49,0,3.85-3,6.54-8.06,6.54-2.37,0-4.57-.63-6.09-1.52l.94-2.96Z"/>
    <path d="M1117.49,30.8c.09,5.33,3.45,7.53,7.44,7.53,2.82,0,4.57-.49,6-1.12l.72,2.82c-1.39.63-3.81,1.39-7.26,1.39-6.68,0-10.66-4.43-10.66-10.97s3.85-11.65,10.17-11.65c7.12,0,8.96,6.18,8.96,10.17,0,.81-.04,1.39-.13,1.84h-15.23ZM1129.05,27.98c.04-2.46-1.03-6.36-5.47-6.36-4.03,0-5.73,3.63-6.05,6.36h11.51Z"/>
    <path d="M1140.2,25.11c0-2.28-.05-4.08-.18-5.87h3.49l.22,3.58h.09c1.07-2.02,3.58-4.03,7.17-4.03,3,0,7.66,1.79,7.66,9.23v12.9h-3.94v-12.5c0-3.49-1.3-6.41-5.02-6.41-2.55,0-4.57,1.84-5.29,4.03-.18.49-.27,1.17-.27,1.84v13.04h-3.94v-15.81Z"/>
    <path d="M1172.1,14.05v5.2h5.64v3h-5.64v11.69c0,2.69.76,4.21,2.96,4.21,1.07,0,1.7-.09,2.28-.27l.18,3c-.76.27-1.97.54-3.49.54-1.84,0-3.31-.63-4.26-1.66-1.07-1.21-1.52-3.14-1.52-5.69v-11.83h-3.36v-3h3.36v-4.03l3.85-1.16Z"/>
    <path d="M1189.03,13.15c0,1.34-.94,2.42-2.51,2.42-1.43,0-2.37-1.08-2.37-2.42s.98-2.46,2.46-2.46,2.42,1.08,2.42,2.46M1184.64,19.24h3.94v21.68h-3.94v-21.68Z"/>
    <path d="M1197.58,25.11c0-2.28-.05-4.08-.18-5.87h3.49l.22,3.58h.09c1.07-2.02,3.58-4.03,7.17-4.03,3,0,7.66,1.79,7.66,9.23v12.9h-3.94v-12.5c0-3.49-1.3-6.41-5.02-6.41-2.55,0-4.57,1.84-5.29,4.03-.18.49-.27,1.17-.27,1.84v13.04h-3.94v-15.81Z"/>
    <path d="M1243.45,37.75c0,5.02-1.03,8.02-3.09,9.94-2.15,1.93-5.2,2.6-7.93,2.6s-5.47-.63-7.21-1.79l.98-3.05c1.43.94,3.67,1.75,6.36,1.75,4.03,0,6.99-2.11,6.99-7.62v-2.37h-.09c-1.16,2.02-3.54,3.63-6.9,3.63-5.38,0-9.23-4.57-9.23-10.57,0-7.35,4.79-11.47,9.81-11.47,3.76,0,5.78,1.93,6.76,3.72h.09l.13-3.27h3.49c-.14,1.52-.18,3.32-.18,5.91v12.59ZM1239.51,27.8c0-.67-.05-1.25-.22-1.75-.72-2.33-2.6-4.21-5.51-4.21-3.76,0-6.45,3.18-6.45,8.2,0,4.26,2.19,7.79,6.41,7.79,2.46,0,4.66-1.52,5.46-4.03.22-.67.31-1.43.31-2.11v-3.9Z"/>
  </g>
</svg>