<?xml version="1.0" encoding="UTF-8"?>
<svg id="Layer_2" data-name="Layer 2" xmlns="http://www.w3.org/2000/svg" viewBox="0 0 714.72 184.87">
  <defs>
    <style>
      .cls-1 {
        fill: #dd8001;
      }

      .cls-2 {
        fill: #fff;
      }
    </style>
  </defs>
  <g id="Layer_1-2" data-name="Layer 1">
    <polygon class="cls-2" points="0 0 0 184.87 12.62 184.87 5.37 156.16 31.32 162.85 36.62 148.35 72.22 182.44 58.1 115.15 74.84 122.4 91.13 91.71 107.76 122.4 124.78 115.15 109.86 182.44 145.42 150.3 149.89 163.41 176.39 159.23 170.25 184.87 182.25 184.87 182.25 0 0 0"/>
    <path class="cls-2" d="M224.57,3.53c8.95,0,15.34,2.11,19.17,6.31,3.82,4.21,5.73,10.57,5.73,19.09v5.41c0,6.12-.98,11.06-2.95,14.82-1.97,3.77-5.46,6.42-10.48,7.95,5.57,1.53,9.53,4.42,11.88,8.68,2.35,4.26,3.52,9.56,3.52,15.89v9.67c0,8.62-2.13,15.26-6.39,19.91-4.26,4.64-10.87,6.96-19.82,6.96h-26.38V3.53h25.72ZM221.46,52.19c5.13,0,8.98-1.04,11.55-3.12,2.57-2.07,3.85-6.11,3.85-12.12v-6.72c0-5.14-.96-8.93-2.86-11.38-1.91-2.46-5.16-3.69-9.75-3.69h-12.62v37.03h9.83ZM225.22,106.57c9.06,0,13.6-5.19,13.6-15.56v-10.16c0-6.44-1.28-10.89-3.85-13.35-2.57-2.46-6.64-3.69-12.21-3.69h-11.14v42.76h13.6Z"/>
    <path class="cls-2" d="M302.88,3.53c9.06,0,15.59,2.24,19.58,6.72,3.99,4.48,5.98,10.98,5.98,19.5v9.34c0,6.33-1.15,11.47-3.44,15.4-2.29,3.93-5.9,6.66-10.81,8.19,5.24,1.53,8.95,4.34,11.14,8.44,2.18,4.1,3.27,9.26,3.27,15.48v17.86c0,2.51.11,4.94.33,7.29.22,2.35.87,4.51,1.97,6.47h-12.94c-.76-1.64-1.31-3.41-1.64-5.33-.33-1.91-.49-4.78-.49-8.6v-18.02c0-6.45-1.45-10.9-4.34-13.36-2.9-2.45-7.02-3.68-12.37-3.68h-9.01v48.98h-12.78V3.53h25.56ZM299.6,57.59c5.13,0,9.12-1.06,11.96-3.19,2.84-2.13,4.26-6.31,4.26-12.53v-10.98c0-5.24-1.01-9.17-3.03-11.79-2.02-2.62-5.43-3.93-10.24-3.93h-12.45v42.43h9.5Z"/>
    <path class="cls-2" d="M369.06,95.1l-4.42,23.1h-11.8L374.79,3.53h18.51l21.95,114.68h-12.78l-4.42-23.1h-28.99ZM370.69,84.13h25.56l-12.94-66.18-12.62,66.18Z"/>
    <path class="cls-2" d="M451.62,91.17c0,5.24,1.06,9.32,3.19,12.2,2.13,2.9,5.54,4.34,10.24,4.34s7.95-1.44,10.07-4.34c2.13-2.89,3.2-6.96,3.2-12.2V3.53h11.96v86.99c0,8.74-2.08,15.76-6.23,21.05-4.15,5.29-10.65,7.95-19.5,7.95s-15.18-2.65-19.33-7.95c-4.15-5.3-6.23-12.31-6.23-21.05V3.53h12.62v87.64Z"/>
    <path class="cls-2" d="M541.23,2.38c8.74,0,15.18,2.6,19.33,7.79,4.15,5.19,6.22,12.14,6.22,20.89v3.11h-12.12v-3.77c0-5.24-1.04-9.28-3.11-12.13-2.07-2.84-5.4-4.26-9.99-4.26s-7.92,1.42-9.99,4.26c-2.07,2.84-3.11,6.82-3.11,11.96,0,4.26.95,7.97,2.86,11.14,1.91,3.17,4.29,6.09,7.13,8.77,2.84,2.68,5.93,5.29,9.26,7.86,3.33,2.57,6.41,5.38,9.26,8.44,2.84,3.05,5.22,6.52,7.13,10.4,1.91,3.88,2.87,8.5,2.87,13.84,0,8.74-2.11,15.71-6.31,20.89-4.2,5.19-10.73,7.78-19.58,7.78s-15.34-2.59-19.49-7.78c-4.15-5.19-6.23-12.15-6.23-20.89v-6.55h11.96v7.21c0,5.24,1.09,9.28,3.27,12.12,2.18,2.84,5.57,4.26,10.16,4.26s7.97-1.41,10.16-4.26c2.18-2.84,3.28-6.88,3.28-12.12,0-4.26-.96-7.95-2.87-11.06-1.91-3.11-4.29-6.01-7.13-8.68-2.84-2.68-5.9-5.3-9.17-7.87-3.28-2.56-6.34-5.37-9.17-8.43-2.84-3.06-5.22-6.52-7.13-10.4-1.91-3.87-2.87-8.49-2.87-13.84,0-8.85,2.07-15.83,6.22-20.97,4.15-5.14,10.54-7.7,19.17-7.7"/>
    <path class="cls-2" d="M616.42,2.38c8.74,0,15.18,2.6,19.33,7.79,4.15,5.19,6.22,12.14,6.22,20.89v3.11h-12.12v-3.77c0-5.24-1.04-9.28-3.11-12.13-2.07-2.84-5.4-4.26-9.99-4.26s-7.92,1.42-9.99,4.26c-2.07,2.84-3.11,6.82-3.11,11.96,0,4.26.95,7.97,2.86,11.14,1.91,3.17,4.29,6.09,7.13,8.77,2.84,2.68,5.93,5.29,9.26,7.86,3.33,2.57,6.41,5.38,9.26,8.44,2.84,3.05,5.22,6.52,7.13,10.4,1.91,3.88,2.87,8.5,2.87,13.84,0,8.74-2.11,15.71-6.31,20.89-4.2,5.19-10.73,7.78-19.58,7.78s-15.34-2.59-19.49-7.78c-4.15-5.19-6.23-12.15-6.23-20.89v-6.55h11.96v7.21c0,5.24,1.09,9.28,3.27,12.12,2.18,2.84,5.57,4.26,10.16,4.26s7.97-1.41,10.16-4.26c2.18-2.84,3.28-6.88,3.28-12.12,0-4.26-.96-7.95-2.87-11.06-1.91-3.11-4.29-6.01-7.13-8.68-2.84-2.68-5.9-5.3-9.17-7.87-3.28-2.56-6.34-5.37-9.17-8.43-2.84-3.06-5.22-6.52-7.13-10.4-1.91-3.87-2.87-8.49-2.87-13.84,0-8.85,2.07-15.83,6.22-20.97,4.15-5.14,10.54-7.7,19.17-7.7"/>
    <polygon class="cls-2" points="708.33 54.31 708.33 65.78 680.31 65.78 680.31 106.57 714.72 106.57 714.72 118.2 667.54 118.2 667.54 3.53 714.72 3.53 714.72 15.16 680.31 15.16 680.31 54.31 708.33 54.31"/>
    <path class="cls-2" d="M226.8,164.94v-5.29l19.12-.03v16.75c-2.94,2.34-5.96,4.1-9.08,5.28-3.12,1.18-6.32,1.77-9.61,1.77-4.43,0-8.46-.94-12.09-2.85-3.62-1.9-6.36-4.65-8.21-8.23-1.85-3.6-2.77-7.61-2.77-12.04s.92-8.49,2.76-12.3c1.84-3.81,4.48-6.64,7.93-8.49,3.45-1.85,7.42-2.77,11.91-2.77,3.27,0,6.22.53,8.86,1.59,2.63,1.05,4.7,2.53,6.2,4.42,1.5,1.89,2.64,4.35,3.42,7.39l-5.39,1.48c-.68-2.3-1.52-4.11-2.53-5.42-1.01-1.31-2.44-2.36-4.31-3.15-1.87-.79-3.94-1.19-6.22-1.19-2.73,0-5.09.42-7.08,1.25-1.99.83-3.6,1.92-4.82,3.28-1.22,1.36-2.17,2.85-2.85,4.47-1.15,2.79-1.72,5.82-1.72,9.09,0,4.03.69,7.39,2.08,10.1,1.38,2.71,3.4,4.72,6.05,6.04s5.46,1.97,8.44,1.97c2.59,0,5.11-.5,7.57-1.49,2.46-1,4.33-2.06,5.61-3.19v-8.41h-13.27Z"/>
    <path class="cls-2" d="M330.04,163.21v19.43h-6.94v-44.81h17.55c5.61,0,9.9,1.09,12.86,3.26,2.96,2.18,4.44,5.34,4.44,9.49,0,2.3-.69,4.3-2.06,6.01-1.37,1.7-3.38,3.06-6.01,4.06,2.82.8,4.85,2.1,6.08,3.9,1.24,1.8,1.85,4.02,1.85,6.67v4.21c0,1.4.17,2.65.53,3.76.35,1.11.96,2.01,1.83,2.71v.74h-7.16c-.92-.7-1.5-1.72-1.76-3.08-.26-1.36-.39-2.75-.39-4.19v-4.09c0-2.42-.81-4.37-2.43-5.85-1.62-1.48-3.79-2.21-6.52-2.21h-11.88ZM330.04,158.44h9.9c3.92,0,6.75-.65,8.47-1.96,1.73-1.3,2.59-3.29,2.59-5.96,0-2.53-.84-4.48-2.52-5.87-1.68-1.39-4.29-2.08-7.84-2.08h-10.61v15.86Z"/>
    <path class="cls-2" d="M433.16,160.65c0-7.49,2.24-13.36,6.71-17.6,4.48-4.24,10.25-6.36,17.33-6.36,4.63,0,8.81,1,12.54,2.99,3.72,1.99,6.56,4.77,8.51,8.33,1.95,3.56,2.93,7.6,2.93,12.12s-1.03,8.68-3.09,12.29c-2.05,3.61-4.96,6.34-8.73,8.2-3.77,1.86-7.83,2.79-12.2,2.79-4.73,0-8.95-1.02-12.67-3.07-3.72-2.06-6.55-4.86-8.46-8.41-1.92-3.55-2.88-7.31-2.88-11.27M440.02,160.75c0,5.44,1.62,9.73,4.88,12.86,3.26,3.13,7.34,4.69,12.25,4.69s9.12-1.58,12.35-4.74c3.23-3.16,4.85-7.65,4.85-13.46,0-3.67-.69-6.88-2.07-9.63-1.38-2.74-3.4-4.87-6.06-6.38s-5.65-2.26-8.96-2.26c-4.71,0-8.75,1.45-12.14,4.36-3.39,2.9-5.08,7.76-5.08,14.55"/>
    <path class="cls-2" d="M590.31,137.5h6.56v26.08c0,4.54-.57,8.14-1.69,10.81-1.13,2.67-3.16,4.84-6.1,6.51-2.94,1.68-6.8,2.51-11.57,2.51s-8.44-.72-11.39-2.18c-2.95-1.45-5.06-3.56-6.32-6.33-1.26-2.76-1.89-6.53-1.89-11.32v-26.08h6.56v26.05c0,3.92.4,6.81,1.2,8.67.8,1.86,2.17,3.29,4.12,4.29,1.95,1.01,4.33,1.51,7.15,1.51,4.82,0,8.26-.99,10.31-2.99,2.05-1.99,3.07-5.82,3.07-11.49v-26.05Z"/>
    <path class="cls-2" d="M675.81,182.64v-45.14h17.03c3,0,5.29.14,6.87.43,2.22.37,4.07,1.07,5.57,2.11,1.5,1.04,2.71,2.49,3.62,4.36.91,1.87,1.37,3.92,1.37,6.16,0,3.84-1.22,7.09-3.66,9.75-2.44,2.66-6.86,3.99-13.24,3.99h-11.58v18.35h-5.98ZM681.78,158.96h11.67c3.86,0,6.6-.72,8.22-2.15,1.62-1.44,2.43-3.46,2.43-6.07,0-1.89-.48-3.5-1.43-4.85-.95-1.35-2.21-2.23-3.77-2.67-1.01-.26-2.87-.4-5.57-.4h-11.55v16.14Z"/>
    <polygon class="cls-1" points="31.32 162.85 36.62 148.35 72.22 182.44 58.1 115.15 74.84 122.4 91.13 91.71 91.13 91.48 0 91.48 0 184.87 12.62 184.87 5.37 156.16 31.32 162.85"/>
  </g>
</svg>