<?xml version="1.0" encoding="UTF-8"?>
<svg id="Layer_2" data-name="Layer 2" xmlns="http://www.w3.org/2000/svg" viewBox="0 0 760.68 219.54">
  <defs>
    <style>
      .cls-1 {
        fill: #dd8001;
      }

      .cls-2 {
        fill: #231f20;
      }
    </style>
  </defs>
  <g id="Layer_1-2" data-name="Layer 1">
    <polygon class="cls-2" points="0 0 0 196.76 13.44 196.76 5.72 166.2 33.33 173.33 38.97 157.89 76.86 194.18 61.84 122.55 79.65 130.27 96.99 97.61 114.69 130.27 132.8 122.55 116.92 194.18 154.78 159.96 159.53 173.92 187.74 169.47 181.2 196.76 193.97 196.76 193.97 0 0 0"/>
    <path class="cls-2" d="M239.01,26.53c9.53,0,16.33,2.24,20.4,6.71,4.07,4.48,6.1,11.25,6.1,20.31v5.76c0,6.51-1.05,11.77-3.14,15.78-2.09,4.01-5.81,6.83-11.16,8.46,5.93,1.63,10.14,4.71,12.64,9.24,2.5,4.54,3.75,10.17,3.75,16.91v10.29c0,9.18-2.27,16.25-6.8,21.19-4.54,4.94-11.57,7.41-21.1,7.41h-28.07V26.53h27.37ZM235.7,78.32c5.46,0,9.56-1.1,12.29-3.32,2.73-2.2,4.1-6.51,4.1-12.9v-7.15c0-5.47-1.02-9.5-3.05-12.12-2.04-2.62-5.49-3.92-10.38-3.92h-13.43v39.41h10.46ZM239.71,136.2c9.65,0,14.47-5.52,14.47-16.56v-10.81c0-6.85-1.37-11.59-4.09-14.21-2.73-2.62-7.06-3.92-12.99-3.92h-11.86v45.51h14.47Z"/>
    <path class="cls-2" d="M322.35,26.53c9.65,0,16.59,2.39,20.83,7.15,4.24,4.77,6.36,11.69,6.36,20.75v9.94c0,6.74-1.22,12.2-3.66,16.39-2.44,4.18-6.28,7.09-11.51,8.72,5.58,1.63,9.53,4.62,11.86,8.98,2.32,4.36,3.48,9.85,3.48,16.48v19.01c0,2.67.12,5.26.35,7.76.23,2.5.93,4.8,2.09,6.89h-13.77c-.81-1.74-1.4-3.63-1.75-5.67-.35-2.03-.52-5.08-.52-9.15v-19.17c0-6.86-1.54-11.6-4.62-14.21-3.08-2.61-7.47-3.92-13.17-3.92h-9.59v52.13h-13.6V26.53h27.2ZM318.86,84.07c5.46,0,9.71-1.13,12.73-3.4,3.02-2.27,4.54-6.71,4.54-13.34v-11.69c0-5.57-1.08-9.76-3.23-12.55-2.15-2.79-5.79-4.18-10.9-4.18h-13.25v45.16h10.11Z"/>
    <path class="cls-2" d="M392.79,124l-4.71,24.59h-12.55l23.37-122.05h19.7l23.36,122.05h-13.6l-4.71-24.59h-30.86ZM394.53,112.32h27.2l-13.77-70.44-13.43,70.44Z"/>
    <path class="cls-2" d="M480.67,119.81c0,5.58,1.13,9.92,3.4,12.99,2.27,3.09,5.9,4.62,10.9,4.62s8.46-1.53,10.72-4.62c2.27-3.07,3.4-7.41,3.4-12.99V26.53h12.73v92.59c0,9.3-2.21,16.77-6.63,22.41-4.42,5.63-11.33,8.46-20.75,8.46s-16.16-2.82-20.57-8.46c-4.42-5.64-6.63-13.1-6.63-22.41V26.53h13.43v93.28Z"/>
    <path class="cls-2" d="M576.04,25.31c9.3,0,16.16,2.77,20.58,8.29,4.42,5.52,6.62,12.93,6.62,22.23v3.31h-12.9v-4.01c0-5.58-1.11-9.88-3.32-12.91-2.21-3.02-5.75-4.53-10.63-4.53s-8.43,1.51-10.64,4.53c-2.21,3.03-3.31,7.26-3.31,12.73,0,4.53,1.02,8.48,3.05,11.86s4.56,6.48,7.58,9.33c3.02,2.85,6.31,5.64,9.85,8.37,3.54,2.73,6.83,5.72,9.85,8.98,3.02,3.25,5.55,6.94,7.59,11.07,2.03,4.13,3.05,9.04,3.05,14.73,0,9.3-2.24,16.71-6.72,22.23-4.47,5.52-11.42,8.28-20.83,8.28s-16.33-2.76-20.75-8.28c-4.42-5.52-6.63-12.93-6.63-22.23v-6.97h12.73v7.67c0,5.58,1.16,9.88,3.49,12.9,2.32,3.03,5.93,4.53,10.81,4.53s8.48-1.51,10.81-4.53c2.32-3.02,3.48-7.32,3.48-12.9,0-4.53-1.02-8.46-3.05-11.77-2.04-3.31-4.57-6.39-7.59-9.24-3.02-2.85-6.28-5.64-9.76-8.38-3.49-2.73-6.74-5.72-9.76-8.97-3.02-3.26-5.55-6.94-7.59-11.07-2.03-4.12-3.05-9.04-3.05-14.73,0-9.42,2.2-16.85,6.62-22.32,4.42-5.47,11.22-8.2,20.4-8.2"/>
    <path class="cls-2" d="M656.06,25.31c9.3,0,16.16,2.77,20.58,8.29,4.42,5.52,6.62,12.93,6.62,22.23v3.31h-12.9v-4.01c0-5.58-1.11-9.88-3.32-12.91-2.21-3.02-5.75-4.53-10.63-4.53s-8.43,1.51-10.64,4.53c-2.21,3.03-3.31,7.26-3.31,12.73,0,4.53,1.02,8.48,3.05,11.86s4.56,6.48,7.58,9.33c3.02,2.85,6.31,5.64,9.85,8.37,3.54,2.73,6.83,5.72,9.85,8.98,3.02,3.25,5.55,6.94,7.59,11.07,2.03,4.13,3.05,9.04,3.05,14.73,0,9.3-2.24,16.71-6.72,22.23-4.47,5.52-11.42,8.28-20.83,8.28s-16.33-2.76-20.75-8.28c-4.42-5.52-6.63-12.93-6.63-22.23v-6.97h12.73v7.67c0,5.58,1.16,9.88,3.49,12.9,2.32,3.03,5.93,4.53,10.81,4.53s8.48-1.51,10.81-4.53c2.32-3.02,3.48-7.32,3.48-12.9,0-4.53-1.02-8.46-3.05-11.77-2.04-3.31-4.57-6.39-7.59-9.24-3.02-2.85-6.28-5.64-9.76-8.38-3.49-2.73-6.74-5.72-9.76-8.97-3.02-3.26-5.55-6.94-7.59-11.07-2.03-4.12-3.05-9.04-3.05-14.73,0-9.42,2.2-16.85,6.62-22.32,4.42-5.47,11.22-8.2,20.4-8.2"/>
    <polygon class="cls-2" points="753.88 80.58 753.88 92.79 724.06 92.79 724.06 136.2 760.68 136.2 760.68 148.58 710.46 148.58 710.46 26.53 760.68 26.53 760.68 38.91 724.06 38.91 724.06 80.58 753.88 80.58"/>
    <path class="cls-2" d="M241.39,198.32v-5.63l20.35-.03v17.83c-3.12,2.49-6.35,4.36-9.67,5.62-3.32,1.25-6.73,1.88-10.23,1.88-4.72,0-9.01-1.01-12.86-3.03-3.86-2.02-6.77-4.94-8.73-8.76-1.97-3.83-2.95-8.1-2.95-12.82s.98-9.04,2.93-13.09c1.96-4.05,4.77-7.07,8.44-9.03,3.67-1.97,7.9-2.95,12.68-2.95,3.48,0,6.62.56,9.43,1.69,2.8,1.12,5.01,2.69,6.6,4.7,1.6,2.01,2.81,4.63,3.64,7.87l-5.74,1.57c-.72-2.45-1.62-4.38-2.69-5.77-1.07-1.4-2.6-2.51-4.59-3.36s-4.2-1.27-6.62-1.27c-2.91,0-5.42.44-7.54,1.33-2.12.88-3.83,2.04-5.13,3.49-1.3,1.44-2.31,3.03-3.03,4.75-1.22,2.97-1.83,6.2-1.83,9.67,0,4.28.74,7.86,2.21,10.75,1.47,2.89,3.62,5.03,6.44,6.42,2.82,1.4,5.81,2.1,8.98,2.1,2.75,0,5.44-.53,8.06-1.59,2.62-1.06,4.61-2.19,5.96-3.39v-8.95h-14.12Z"/>
    <path class="cls-2" d="M351.27,196.49v20.68h-7.39v-47.69h18.68c5.97,0,10.54,1.16,13.69,3.47,3.15,2.32,4.73,5.68,4.73,10.1,0,2.45-.73,4.58-2.2,6.39-1.46,1.81-3.59,3.25-6.39,4.32,3,.86,5.16,2.23,6.47,4.15,1.32,1.91,1.97,4.28,1.97,7.1v4.49c0,1.49.19,2.82.56,4,.37,1.18,1.02,2.14,1.95,2.89v.78h-7.61c-.98-.74-1.6-1.83-1.88-3.28-.27-1.44-.41-2.93-.41-4.46v-4.35c0-2.58-.86-4.66-2.59-6.23-1.73-1.57-4.04-2.36-6.94-2.36h-12.64ZM351.27,191.41h10.54c4.18,0,7.18-.69,9.02-2.08,1.84-1.38,2.76-3.5,2.76-6.34,0-2.69-.89-4.77-2.68-6.24-1.79-1.48-4.57-2.21-8.34-2.21h-11.29v16.88Z"/>
    <path class="cls-2" d="M461.02,193.76c0-7.97,2.38-14.21,7.14-18.73,4.77-4.51,10.91-6.77,18.45-6.77,4.93,0,9.38,1.06,13.34,3.18,3.96,2.12,6.98,5.07,9.06,8.87,2.08,3.79,3.12,8.09,3.12,12.9s-1.09,9.23-3.28,13.08c-2.19,3.85-5.28,6.75-9.29,8.73-4.01,1.98-8.34,2.96-12.98,2.96-5.03,0-9.53-1.09-13.49-3.27-3.96-2.19-6.97-5.17-9.01-8.95-2.04-3.78-3.06-7.78-3.06-11.99M468.31,193.86c0,5.79,1.73,10.36,5.19,13.69,3.46,3.33,7.81,4.99,13.03,4.99s9.7-1.68,13.14-5.05c3.44-3.36,5.16-8.14,5.16-14.32,0-3.91-.73-7.33-2.2-10.25-1.47-2.91-3.62-5.18-6.45-6.78-2.83-1.61-6.01-2.41-9.53-2.41-5.01,0-9.32,1.55-12.93,4.64-3.61,3.09-5.41,8.25-5.41,15.48"/>
    <path class="cls-2" d="M628.28,169.12h6.98v27.76c0,4.83-.6,8.67-1.8,11.51-1.2,2.84-3.36,5.15-6.49,6.93-3.13,1.78-7.24,2.67-12.32,2.67s-8.98-.77-12.12-2.32c-3.14-1.55-5.38-3.79-6.73-6.73-1.34-2.94-2.01-6.95-2.01-12.05v-27.76h6.98v27.73c0,4.17.42,7.25,1.28,9.23.85,1.98,2.31,3.5,4.39,4.57,2.07,1.07,4.61,1.61,7.61,1.61,5.13,0,8.79-1.06,10.97-3.18,2.18-2.12,3.27-6.19,3.27-12.22v-27.73Z"/>
    <path class="cls-2" d="M719.27,217.17v-48.05h18.12c3.19,0,5.63.15,7.31.46,2.36.39,4.34,1.14,5.93,2.25,1.59,1.1,2.88,2.65,3.85,4.64.97,1.99,1.46,4.17,1.46,6.56,0,4.09-1.3,7.54-3.9,10.38-2.6,2.83-7.3,4.24-14.1,4.24h-12.32v19.53h-6.36ZM725.63,191.96h12.42c4.11,0,7.03-.76,8.75-2.29,1.73-1.53,2.59-3.68,2.59-6.46,0-2.01-.51-3.73-1.52-5.16-1.02-1.44-2.35-2.38-4.02-2.84-1.07-.28-3.05-.42-5.93-.42h-12.29v17.17Z"/>
    <polygon class="cls-1" points="33.33 196.1 38.97 180.66 76.86 216.95 61.84 145.33 79.65 153.05 96.99 120.39 96.99 120.14 0 120.14 0 219.54 13.44 219.54 5.72 188.98 33.33 196.1"/>
  </g>
</svg>